<?xml version="1.0" encoding="iso-8859-1"?>
<!DOCTYPE svg PUBLIC "-//W3C//DTD SVG 1.1//EN" "http://www.w3.org/Graphics/SVG/1.1/DTD/svg11.dtd">
<svg version="1.1"  xmlns="http://www.w3.org/2000/svg" xmlns:xlink="http://www.w3.org/1999/xlink" x="0px" y="0px" 
	style="enable-background:new 0 0 612 612;" xml:space="preserve"
>
	<!-- Viewbox 0 0 477.175 477.175 -->
	<g id="icon_prev">
		<path d="M145.188,238.575l215.5-215.5c5.3-5.3,5.3-13.8,0-19.1s-13.8-5.3-19.1,0l-225.1,225.1c-5.3,5.3-5.3,13.8,0,19.1l225.1,225
			c2.6,2.6,6.1,4,9.5,4s6.9-1.3,9.5-4c5.3-5.3,5.3-13.8,0-19.1L145.188,238.575z"/>
	</g>

	<!-- Viewbox 0 0 477.175 477.175 -->
	<g id="icon_next">
		<path d="M360.731,229.075l-225.1-225.1c-5.3-5.3-13.8-5.3-19.1,0s-5.3,13.8,0,19.1l215.5,215.5l-215.5,215.5
			c-5.3,5.3-5.3,13.8,0,19.1c2.6,2.6,6.1,4,9.5,4c3.4,0,6.9-1.3,9.5-4l225.1-225.1C365.931,242.875,365.931,234.275,360.731,229.075z
			"/>
	</g>

	<!-- Viewbox 0 0 612 612 -->
	<g id="icon_add">
		<path d="M306,0C136.992,0,0,136.992,0,306s136.992,306,306,306s306-137.012,306-306S475.008,0,306,0z M306,573.75
				C158.125,573.75,38.25,453.875,38.25,306C38.25,158.125,158.125,38.25,306,38.25c147.875,0,267.75,119.875,267.75,267.75
				C573.75,453.875,453.875,573.75,306,573.75z M420.75,286.875h-95.625V191.25c0-10.557-8.568-19.125-19.125-19.125
				c-10.557,0-19.125,8.568-19.125,19.125v95.625H191.25c-10.557,0-19.125,8.568-19.125,19.125c0,10.557,8.568,19.125,19.125,19.125
				h95.625v95.625c0,10.557,8.568,19.125,19.125,19.125c10.557,0,19.125-8.568,19.125-19.125v-95.625h95.625
				c10.557,0,19.125-8.568,19.125-19.125C439.875,295.443,431.307,286.875,420.75,286.875z"
		/>
	</g>

	<!-- Viewbox 0 0 490.337 490.337 -->
	<g id="icon_edit">
		<g>
			<path d="M229.9,145.379l-47.5,47.5c-17.5,17.5-35.1,35-52.5,52.7c-4.1,4.2-7.2,9.8-8.4,15.3c-6.3,28.9-12.4,57.8-18.5,86.7
				l-3.4,16c-1.6,7.8,0.5,15.6,5.8,20.9c4.1,4.1,9.8,6.4,15.8,6.4c1.7,0,3.4-0.2,5.1-0.5l17.6-3.7c28-5.9,56.1-11.9,84.1-17.7
				c6.5-1.4,12-4.3,16.7-9c78.6-78.7,157.2-157.3,235.8-235.8c5.8-5.8,9-12.7,9.8-21.2c0.1-1.4,0-2.8-0.3-4.1c-0.5-2-0.9-4.1-1.4-6.1
				c-1.1-5.1-2.3-10.9-4.7-16.5l0,0c-14.7-33.6-39.1-57.6-72.5-71.1c-6.7-2.7-13.8-3.6-20-4.4l-1.7-0.2c-9-1.1-17.2,1.9-24.3,9.1
				C320.4,54.879,275.1,100.179,229.9,145.379z M386.4,24.679c0.2,0,0.3,0,0.5,0l1.7,0.2c5.2,0.6,10,1.2,13.8,2.8
				c27.2,11,47.2,30.6,59.3,58.2c1.4,3.2,2.3,7.3,3.2,11.6c0.3,1.6,0.7,3.2,1,4.8c-0.4,1.8-1.1,3-2.5,4.3
				c-78.7,78.5-157.3,157.2-235.9,235.8c-1.3,1.3-2.5,1.9-4.3,2.3c-28.1,5.9-56.1,11.8-84.2,17.7l-14.8,3.1l2.8-13.1
				c6.1-28.8,12.2-57.7,18.4-86.5c0.2-0.9,1-2.3,1.9-3.3c17.4-17.6,34.8-35.1,52.3-52.5l47.5-47.5c45.3-45.3,90.6-90.6,135.8-136
				C384.8,24.979,385.7,24.679,386.4,24.679z"/>
			<path d="M38.9,109.379h174.6c6.8,0,12.3-5.5,12.3-12.3s-5.5-12.3-12.3-12.3H38.9c-21.5,0-38.9,17.5-38.9,38.9v327.4
				c0,21.5,17.5,38.9,38.9,38.9h327.3c21.5,0,38.9-17.5,38.9-38.9v-167.5c0-6.8-5.5-12.3-12.3-12.3s-12.3,5.5-12.3,12.3v167.5
				c0,7.9-6.5,14.4-14.4,14.4H38.9c-7.9,0-14.4-6.5-14.4-14.4v-327.3C24.5,115.879,31,109.379,38.9,109.379z"/>
		</g>
	</g>

	<!-- Viewbox 0 0 490.4 490.4 -->
	<g id="icon_success">
		<path d="M245.2,0C110,0,0,110,0,245.2s110,245.2,245.2,245.2s245.2-110,245.2-245.2S380.4,0,245.2,0z M245.2,465.9
			c-121.7,0-220.7-99-220.7-220.7s99-220.7,220.7-220.7s220.7,99,220.7,220.7S366.9,465.9,245.2,465.9z"/>
		<path d="M309.4,185.5l-94,93.5l-34.3-34.5c-4.8-4.8-12.5-4.8-17.3-0.1c-4.8,4.7-4.8,12.5-0.1,17.3l42.9,43.2
			c2.4,2.4,5.5,3.6,8.7,3.6c3.1,0,6.2-1.2,8.6-3.6l102.7-102.1c4.8-4.8,4.8-12.5,0.1-17.3C321.9,180.7,314.2,180.7,309.4,185.5z"/>
	</g>

	<!-- Viewbox 0 0 475.2 475.2 -->
	<g id="icon_close">
		<g>
			<path d="M405.6,69.6C360.7,24.7,301.1,0,237.6,0s-123.1,24.7-168,69.6S0,174.1,0,237.6s24.7,123.1,69.6,168s104.5,69.6,168,69.6
				s123.1-24.7,168-69.6s69.6-104.5,69.6-168S450.5,114.5,405.6,69.6z M386.5,386.5c-39.8,39.8-92.7,61.7-148.9,61.7
				s-109.1-21.9-148.9-61.7c-82.1-82.1-82.1-215.7,0-297.8C128.5,48.9,181.4,27,237.6,27s109.1,21.9,148.9,61.7
				C468.6,170.8,468.6,304.4,386.5,386.5z"/>
			<path d="M342.3,132.9c-5.3-5.3-13.8-5.3-19.1,0l-85.6,85.6L152,132.9c-5.3-5.3-13.8-5.3-19.1,0c-5.3,5.3-5.3,13.8,0,19.1
				l85.6,85.6l-85.6,85.6c-5.3,5.3-5.3,13.8,0,19.1c2.6,2.6,6.1,4,9.5,4s6.9-1.3,9.5-4l85.6-85.6l85.6,85.6c2.6,2.6,6.1,4,9.5,4
				c3.5,0,6.9-1.3,9.5-4c5.3-5.3,5.3-13.8,0-19.1l-85.4-85.6l85.6-85.6C347.6,146.7,347.6,138.2,342.3,132.9z"/>
		</g>
	</g>

	<!-- Viewbox 0 0 32.666 32.666 -->
	<g id="icon_contact">
		<path d="M28.189,16.504h-1.666c0-5.437-4.422-9.858-9.856-9.858l-0.001-1.664C23.021,4.979,28.189,10.149,28.189,16.504z
			 M16.666,7.856L16.665,9.52c3.853,0,6.983,3.133,6.981,6.983l1.666-0.001C25.312,11.735,21.436,7.856,16.666,7.856z M16.333,0
			C7.326,0,0,7.326,0,16.334c0,9.006,7.326,16.332,16.333,16.332c0.557,0,1.007-0.45,1.007-1.006c0-0.559-0.45-1.01-1.007-1.01
			c-7.896,0-14.318-6.424-14.318-14.316c0-7.896,6.422-14.319,14.318-14.319c7.896,0,14.317,6.424,14.317,14.319
			c0,3.299-1.756,6.568-4.269,7.954c-0.913,0.502-1.903,0.751-2.959,0.761c0.634-0.377,1.183-0.887,1.591-1.529
			c0.08-0.121,0.186-0.228,0.238-0.359c0.328-0.789,0.357-1.684,0.555-2.518c0.243-1.064-4.658-3.143-5.084-1.814
			c-0.154,0.492-0.39,2.048-0.699,2.458c-0.275,0.366-0.953,0.192-1.377-0.168c-1.117-0.952-2.364-2.351-3.458-3.457l0.002-0.001
			c-0.028-0.029-0.062-0.061-0.092-0.092c-0.031-0.029-0.062-0.062-0.093-0.092v0.002c-1.106-1.096-2.506-2.34-3.457-3.459
			c-0.36-0.424-0.534-1.102-0.168-1.377c0.41-0.311,1.966-0.543,2.458-0.699c1.326-0.424-0.75-5.328-1.816-5.084
			c-0.832,0.195-1.727,0.227-2.516,0.553c-0.134,0.057-0.238,0.16-0.359,0.24c-2.799,1.774-3.16,6.082-0.428,9.292
			c1.041,1.228,2.127,2.416,3.245,3.576l-0.006,0.004c0.031,0.031,0.063,0.06,0.095,0.09c0.03,0.031,0.059,0.062,0.088,0.095
			l0.006-0.006c1.16,1.118,2.535,2.765,4.769,4.255c4.703,3.141,8.312,2.264,10.438,1.098c3.67-2.021,5.312-6.338,5.312-9.719
			C32.666,7.326,25.339,0,16.333,0z"
		/>
	</g>

	<!-- Viewbox 0 0 38 38 -->
	<g id="icon_discount">
		<path d="M0.293,36.293l36-36l1.414,1.414l-36,36L0.293,36.293z"/>
		<path d="M6,12c3.309,0,6-2.691,6-6S9.309,0,6,0S0,2.691,0,6S2.691,12,6,12z M6,2c2.206,0,4,1.794,4,4s-1.794,4-4,4S2,8.206,2,6
			S3.794,2,6,2z"
		/>
		<path d="M32,26c-3.309,0-6,2.691-6,6s2.691,6,6,6s6-2.691,6-6S35.309,26,32,26z M32,36c-2.206,0-4-1.794-4-4s1.794-4,4-4
			s4,1.794,4,4S34.206,36,32,36z"
		/>
	</g>

	<!-- Viewbox 0 0 488.3 488.3 -->
	<g id="icon_document">
		<path d="M314.25,85.4h-227c-21.3,0-38.6,17.3-38.6,38.6v325.7c0,21.3,17.3,38.6,38.6,38.6h227c21.3,0,38.6-17.3,38.6-38.6V124
			C352.75,102.7,335.45,85.4,314.25,85.4z M325.75,449.6c0,6.4-5.2,11.6-11.6,11.6h-227c-6.4,0-11.6-5.2-11.6-11.6V124
			c0-6.4,5.2-11.6,11.6-11.6h227c6.4,0,11.6,5.2,11.6,11.6V449.6z"
		/>
		<path d="M401.05,0h-227c-21.3,0-38.6,17.3-38.6,38.6c0,7.5,6,13.5,13.5,13.5s13.5-6,13.5-13.5c0-6.4,5.2-11.6,11.6-11.6h227
			c6.4,0,11.6,5.2,11.6,11.6v325.7c0,6.4-5.2,11.6-11.6,11.6c-7.5,0-13.5,6-13.5,13.5s6,13.5,13.5,13.5c21.3,0,38.6-17.3,38.6-38.6
			V38.6C439.65,17.3,422.35,0,401.05,0z"
		/>
	</g>

	<!-- Viewbox 0 0 486.569 486.569 -->
	<g id="icon_cart">
		<path d="M146.069,320.369h268.1c30.4,0,55.2-24.8,55.2-55.2v-112.8c0-0.1,0-0.3,0-0.4c0-0.3,0-0.5,0-0.8c0-0.2,0-0.4-0.1-0.6
			c0-0.2-0.1-0.5-0.1-0.7s-0.1-0.4-0.1-0.6c-0.1-0.2-0.1-0.4-0.2-0.7c-0.1-0.2-0.1-0.4-0.2-0.6c-0.1-0.2-0.1-0.4-0.2-0.6
			c-0.1-0.2-0.2-0.4-0.3-0.7c-0.1-0.2-0.2-0.4-0.3-0.5c-0.1-0.2-0.2-0.4-0.3-0.6c-0.1-0.2-0.2-0.3-0.3-0.5c-0.1-0.2-0.3-0.4-0.4-0.6
			c-0.1-0.2-0.2-0.3-0.4-0.5c-0.1-0.2-0.3-0.3-0.4-0.5s-0.3-0.3-0.4-0.5s-0.3-0.3-0.4-0.4c-0.2-0.2-0.3-0.3-0.5-0.5
			c-0.2-0.1-0.3-0.3-0.5-0.4c-0.2-0.1-0.4-0.3-0.6-0.4c-0.2-0.1-0.3-0.2-0.5-0.3s-0.4-0.2-0.6-0.4c-0.2-0.1-0.4-0.2-0.6-0.3
			s-0.4-0.2-0.6-0.3s-0.4-0.2-0.6-0.3s-0.4-0.1-0.6-0.2c-0.2-0.1-0.5-0.2-0.7-0.2s-0.4-0.1-0.5-0.1c-0.3-0.1-0.5-0.1-0.8-0.1
			c-0.1,0-0.2-0.1-0.4-0.1l-339.8-46.9v-47.4c0-0.5,0-1-0.1-1.4c0-0.1,0-0.2-0.1-0.4c0-0.3-0.1-0.6-0.1-0.9c-0.1-0.3-0.1-0.5-0.2-0.8
			c0-0.2-0.1-0.3-0.1-0.5c-0.1-0.3-0.2-0.6-0.3-0.9c0-0.1-0.1-0.3-0.1-0.4c-0.1-0.3-0.2-0.5-0.4-0.8c-0.1-0.1-0.1-0.3-0.2-0.4
			c-0.1-0.2-0.2-0.4-0.4-0.6c-0.1-0.2-0.2-0.3-0.3-0.5s-0.2-0.3-0.3-0.5s-0.3-0.4-0.4-0.6c-0.1-0.1-0.2-0.2-0.3-0.3
			c-0.2-0.2-0.4-0.4-0.6-0.6c-0.1-0.1-0.2-0.2-0.3-0.3c-0.2-0.2-0.4-0.4-0.7-0.6c-0.1-0.1-0.3-0.2-0.4-0.3c-0.2-0.2-0.4-0.3-0.6-0.5
			c-0.3-0.2-0.6-0.4-0.8-0.5c-0.1-0.1-0.2-0.1-0.3-0.2c-0.4-0.2-0.9-0.4-1.3-0.6l-73.7-31c-6.9-2.9-14.8,0.3-17.7,7.2
			s0.3,14.8,7.2,17.7l65.4,27.6v61.2v9.7v74.4v66.5v84c0,28,21,51.2,48.1,54.7c-4.9,8.2-7.8,17.8-7.8,28c0,30.1,24.5,54.5,54.5,54.5
			s54.5-24.5,54.5-54.5c0-10-2.7-19.5-7.5-27.5h121.4c-4.8,8.1-7.5,17.5-7.5,27.5c0,30.1,24.5,54.5,54.5,54.5s54.5-24.5,54.5-54.5
			s-24.5-54.5-54.5-54.5h-255c-15.6,0-28.2-12.7-28.2-28.2v-36.6C126.069,317.569,135.769,320.369,146.069,320.369z M213.269,431.969
			c0,15.2-12.4,27.5-27.5,27.5s-27.5-12.4-27.5-27.5s12.4-27.5,27.5-27.5S213.269,416.769,213.269,431.969z M428.669,431.969
			c0,15.2-12.4,27.5-27.5,27.5s-27.5-12.4-27.5-27.5s12.4-27.5,27.5-27.5S428.669,416.769,428.669,431.969z M414.169,293.369h-268.1
			c-15.6,0-28.2-12.7-28.2-28.2v-66.5v-74.4v-5l324.5,44.7v101.1C442.369,280.769,429.669,293.369,414.169,293.369z"
		/>
	</g>

	<!-- Viewbox 0 0 612 612 -->
	<g id="icon_comment">
		<path d="M401.625,286.76h-191.25c-10.557,0-19.125,8.568-19.125,19.125c0,10.557,8.568,19.125,19.125,19.125h191.25
				c10.557,0,19.125-8.568,19.125-19.125C420.75,295.328,412.182,286.76,401.625,286.76z M554.625,19.01H57.375
				C25.685,19.01,0,44.695,0,76.385v382.5c0,31.689,25.685,57.375,57.375,57.375h171.896L306,592.99l76.729-76.73h171.896
				c31.69,0,57.375-25.686,57.375-57.375v-382.5C612,44.695,586.315,19.01,554.625,19.01z M573.75,439.76
				c0,21.133-17.117,38.25-38.25,38.25H363.604L306,535.615l-57.604-57.605H76.5c-21.133,0-38.25-17.117-38.25-38.25V95.51
				c0-21.133,17.117-38.25,38.25-38.25h459c21.133,0,38.25,17.117,38.25,38.25V439.76z M478.125,172.01h-344.25
				c-10.557,0-19.125,8.568-19.125,19.125s8.568,19.125,19.125,19.125h344.25c10.557,0,19.125-8.568,19.125-19.125
				S488.682,172.01,478.125,172.01z"
		/>
	</g>

	<!-- Viewbox 0 0 471.701 471.701 -->
	<g id="icon_favorite">
		<path d="M433.601,67.001c-24.7-24.7-57.4-38.2-92.3-38.2s-67.7,13.6-92.4,38.3l-12.9,12.9l-13.1-13.1
			c-24.7-24.7-57.6-38.4-92.5-38.4c-34.8,0-67.6,13.6-92.2,38.2c-24.7,24.7-38.3,57.5-38.2,92.4c0,34.9,13.7,67.6,38.4,92.3
			l187.8,187.8c2.6,2.6,6.1,4,9.5,4c3.4,0,6.9-1.3,9.5-3.9l188.2-187.5c24.7-24.7,38.3-57.5,38.3-92.4
			C471.801,124.501,458.301,91.701,433.601,67.001z M414.401,232.701l-178.7,178l-178.3-178.3c-19.6-19.6-30.4-45.6-30.4-73.3
			s10.7-53.7,30.3-73.2c19.5-19.5,45.5-30.3,73.1-30.3c27.7,0,53.8,10.8,73.4,30.4l22.6,22.6c5.3,5.3,13.8,5.3,19.1,0l22.4-22.4
			c19.6-19.6,45.7-30.4,73.3-30.4c27.6,0,53.6,10.8,73.2,30.3c19.6,19.6,30.3,45.6,30.3,73.3
			C444.801,187.101,434.001,213.101,414.401,232.701z"
		/>
	</g>

	<!-- Viewbox 0 0 129 129 -->
	<g id="icon_logout">
		<path d="m88.6,94.4c0.8,0.8 1.8,1.2 2.9,1.2s2.1-0.4 2.9-1.2l27-27c0.2-0.2 0.4-0.4 0.5-0.6 0,0 0.1-0.1 0.1-0.2 0.1-0.2 0.2-0.4 0.3-0.5 0-0.1 0-0.2 0.1-0.2 0.1-0.2 0.1-0.3 0.2-0.5 0.1-0.3 0.1-0.5 0.1-0.8 0-0.3 0-0.5-0.1-0.8 0-0.2-0.1-0.4-0.2-0.5 0-0.1 0-0.2-0.1-0.2-0.1-0.2-0.2-0.4-0.3-0.6 0,0 0-0.1-0.1-0.1-0.1-0.2-0.3-0.4-0.5-0.6l-27-27c-1.6-1.6-4.2-1.6-5.8,0-1.6,1.6-1.6,4.2 0,5.8l20,20h-71.1c-2.3,0-4.1,1.8-4.1,4.1 0,2.3 1.8,4.1 4.1,4.1h71.1l-20,20c-1.6,1.4-1.6,4 0,5.6z"
		/>
		<path d="m10.5,122.5h54c2.3,0 4.1-1.8 4.1-4.1v-40.3c0-2.3-1.8-4.1-4.1-4.1s-4.1,1.8-4.1,4.1v36.2h-45.8v-99.7h45.8v36.2c0,2.3 1.8,4.1 4.1,4.1s4.1-1.8 4.1-4.1v-40.3c0-2.3-1.8-4.1-4.1-4.1h-54c-2.3,0-4.1,1.8-4.1,4.1v107.9c0.1,2.3 1.9,4.1 4.1,4.1z"/>
	</g>

	<!-- Viewbox 0 0 490.1 490.1 -->
	<g id="icon_organization">
		<path d="M177.3,76.95v111c0,6.8,5.5,12.3,12.3,12.3h43.2v33.4h-165c-6.8,0-12.3,5.5-12.3,12.3v43.9H12.3
			c-6.8,0-12.3,5.5-12.3,12.3v111c0,6.8,5.5,12.3,12.3,12.3h111c6.8,0,12.3-5.5,12.3-12.3v-111c0-6.8-5.5-12.3-12.3-12.3H80v-31.7
			h152.7v31.7h-43.2c-6.8,0-12.3,5.5-12.3,12.3v111c0,6.8,5.5,12.3,12.3,12.3h111c6.8,0,12.3-5.5,12.3-12.3v-111
			c0-6.8-5.5-12.3-12.3-12.3h-43.2v-31.7H410v31.7h-43.2c-6.8,0-12.3,5.5-12.3,12.3v111c0,6.8,5.5,12.3,12.3,12.3h111
			c6.8,0,12.3-5.5,12.3-12.3v-111c0-6.8-5.5-12.3-12.3-12.3h-43.2v-43.9c0-6.8-5.5-12.3-12.3-12.3h-165v-33.4h43.2
			c6.8,0,12.3-5.5,12.3-12.3v-111c0-6.8-5.5-12.3-12.3-12.3h-111C182.8,64.65,177.3,70.15,177.3,76.95z M111,400.75H24.6v-86.5H111
			V400.75z M288.2,400.75h-86.5v-86.5h86.5V400.75z M465.4,400.75H379v-86.5h86.5v86.5H465.4z M201.8,89.15h86.5v86.5h-86.5
			L201.8,89.15L201.8,89.15z"
		/>
	</g>

	<!-- Viewbox 0 0 319.949 319.949 -->
	<g id="icon_pass">
		<path d="M261.891,319.945c-2.599,0-5.101-1.012-6.97-2.828l-2.515-2.444l-22.722,0.657c-8.579,0.197-15.594-6.484-15.832-15.109
			l-0.34-12.18l-11.554,0.334c-0.145,0.004-0.295,0.006-0.446,0.006c-8.395,0-15.153-6.641-15.385-15.119l-0.337-12.174
			l-11.555,0.334c-0.154,0.004-0.295,0.006-0.437,0.006c-8.4,0-15.162-6.642-15.395-15.121l-0.677-24.32
			c-2.093-2.127-5.762-5.599-9.706-9.23c-3.898,2.241-8.346,3.461-12.896,3.461c-6.772,0-13.196-2.62-18.086-7.377
			c-0.2-0.194-0.392-0.397-0.575-0.607c-0.483-0.557-1.007-1.175-1.538-1.828c-3.937,0.455-7.903,0.685-11.859,0.685
			c-27.553,0-53.453-10.775-72.931-30.343c-40.182-40.362-40.182-106.036,0-146.399C49.615,10.78,75.517,0.004,103.071,0.004
			s53.455,10.776,72.934,30.344c23.722,23.828,34.284,57.301,28.743,90.367c2.623,4.08,4.098,8.83,4.234,13.808
			c0.117,4.269-0.747,8.412-2.491,12.158l109.77,110.439c1.794,1.806,2.832,4.227,2.903,6.771l0.774,27.738
			c0.401,14.682-10.999,26.963-25.415,27.383l-32.346,0.93C262.082,319.944,261.986,319.945,261.891,319.945z M256.344,294.554
			c2.599,0,5.101,1.013,6.97,2.829l2.515,2.444l28.117-0.809c3.407-0.099,6.102-3.167,6.001-6.838l-0.664-23.772L187.876,156.323
			c-1.504-1.514-2.484-3.469-2.799-5.579l-0.383-2.574c-0.443-2.987,0.485-6.015,2.529-8.238c1.189-1.294,1.817-3.021,1.767-4.86
			c-0.049-1.788-0.752-3.446-1.978-4.669c-2.407-2.398-3.431-5.855-2.719-9.178c5.987-27.927-2.41-56.624-22.463-76.768
			c-15.697-15.769-36.565-24.453-58.76-24.453S60.009,28.688,44.31,44.457c-32.437,32.582-32.437,85.598,0,118.179
			c15.697,15.77,36.563,24.453,58.757,24.453c5.311,0,10.642-0.513,15.848-1.522c4.327-0.844,8.692,1.251,10.749,5.148
			c0.576,1.092,0.369,4.093,5.202,4.926c1.617,0.279,3.435-0.101,4.591-1.331l1.295-1.469c1.764-2,4.251-3.213,6.912-3.369
			c2.676-0.154,5.275,0.755,7.261,2.533c0.2,0.18,4.968,4.451,9.827,8.99c10.646,9.945,12.744,12.306,12.874,17.028l0.647,23.272
			l16.947-0.49c2.676-0.084,5.229,0.906,7.157,2.728c1.93,1.823,3.055,4.339,3.128,6.992l0.491,17.724l16.943-0.49
			c2.677-0.086,5.229,0.905,7.156,2.728c1.93,1.822,3.055,4.337,3.129,6.989l0.495,17.729l22.334-0.646
			C256.151,294.555,256.248,294.554,256.344,294.554z"
		/>
		<path d="M84.895,120.428c-9.363,0-18.163-3.659-24.779-10.305c-13.631-13.695-13.63-35.974,0-49.664
			c6.616-6.646,15.418-10.308,24.782-10.308s18.166,3.661,24.782,10.309c13.629,13.69,13.627,35.968-0.003,49.659
			C103.062,116.766,94.261,120.428,84.895,120.428z M84.898,70.152c-4.005,0-7.772,1.569-10.608,4.418
			c-5.885,5.911-5.885,15.53,0.001,21.443c2.834,2.847,6.601,4.415,10.604,4.415c4.005,0,7.771-1.569,10.607-4.418
			c5.886-5.913,5.887-15.53,0.004-21.44C92.671,71.721,88.903,70.152,84.898,70.152z"
		/>
		<path d="M271.669,282.908c-2.566,0-5.133-0.981-7.087-2.945l-88.698-89.1c-3.896-3.914-3.882-10.245,0.032-14.142
			c3.912-3.895,10.245-3.884,14.142,0.032l88.698,89.1c3.896,3.914,3.882,10.245-0.032,14.142
			C276.773,281.937,274.221,282.908,271.669,282.908z"
		/>
	</g>

	<!-- Viewbox 0 0 482.9 482.9 -->
	<g id="icon_profile">
		<path d="M239.7,260.2c0.5,0,1,0,1.6,0c0.2,0,0.4,0,0.6,0c0.3,0,0.7,0,1,0c29.3-0.5,53-10.8,70.5-30.5
			c38.5-43.4,32.1-117.8,31.4-124.9c-2.5-53.3-27.7-78.8-48.5-90.7C280.8,5.2,262.7,0.4,242.5,0h-0.7c-0.1,0-0.3,0-0.4,0h-0.6
			c-11.1,0-32.9,1.8-53.8,13.7c-21,11.9-46.6,37.4-49.1,91.1c-0.7,7.1-7.1,81.5,31.4,124.9C186.7,249.4,210.4,259.7,239.7,260.2z
			 M164.6,107.3c0-0.3,0.1-0.6,0.1-0.8c3.3-71.7,54.2-79.4,76-79.4h0.4c0.2,0,0.5,0,0.8,0c27,0.6,72.9,11.6,76,79.4
			c0,0.3,0,0.6,0.1,0.8c0.1,0.7,7.1,68.7-24.7,104.5c-12.6,14.2-29.4,21.2-51.5,21.4c-0.2,0-0.3,0-0.5,0l0,0c-0.2,0-0.3,0-0.5,0
			c-22-0.2-38.9-7.2-51.4-21.4C157.7,176.2,164.5,107.9,164.6,107.3z"
		/>
		<path d="M446.8,383.6c0-0.1,0-0.2,0-0.3c0-0.8-0.1-1.6-0.1-2.5c-0.6-19.8-1.9-66.1-45.3-80.9c-0.3-0.1-0.7-0.2-1-0.3
			c-45.1-11.5-82.6-37.5-83-37.8c-6.1-4.3-14.5-2.8-18.8,3.3c-4.3,6.1-2.8,14.5,3.3,18.8c1.7,1.2,41.5,28.9,91.3,41.7
			c23.3,8.3,25.9,33.2,26.6,56c0,0.9,0,1.7,0.1,2.5c0.1,9-0.5,22.9-2.1,30.9c-16.2,9.2-79.7,41-176.3,41
			c-96.2,0-160.1-31.9-176.4-41.1c-1.6-8-2.3-21.9-2.1-30.9c0-0.8,0.1-1.6,0.1-2.5c0.7-22.8,3.3-47.7,26.6-56
			c49.8-12.8,89.6-40.6,91.3-41.7c6.1-4.3,7.6-12.7,3.3-18.8c-4.3-6.1-12.7-7.6-18.8-3.3c-0.4,0.3-37.7,26.3-83,37.8
			c-0.4,0.1-0.7,0.2-1,0.3c-43.4,14.9-44.7,61.2-45.3,80.9c0,0.9,0,1.7-0.1,2.5c0,0.1,0,0.2,0,0.3c-0.1,5.2-0.2,31.9,5.1,45.3
			c1,2.6,2.8,4.8,5.2,6.3c3,2,74.9,47.8,195.2,47.8s192.2-45.9,195.2-47.8c2.3-1.5,4.2-3.7,5.2-6.3
			C447,415.5,446.9,388.8,446.8,383.6z"
		/>
	</g>

	<!-- Viewbox 0 0 486.4 486.4 -->
	<g id="icon_remove">
		<path d="M446,70H344.8V53.5c0-29.5-24-53.5-53.5-53.5h-96.2c-29.5,0-53.5,24-53.5,53.5V70H40.4c-7.5,0-13.5,6-13.5,13.5
			S32.9,97,40.4,97h24.4v317.2c0,39.8,32.4,72.2,72.2,72.2h212.4c39.8,0,72.2-32.4,72.2-72.2V97H446c7.5,0,13.5-6,13.5-13.5
			S453.5,70,446,70z M168.6,53.5c0-14.6,11.9-26.5,26.5-26.5h96.2c14.6,0,26.5,11.9,26.5,26.5V70H168.6V53.5z M394.6,414.2
			c0,24.9-20.3,45.2-45.2,45.2H137c-24.9,0-45.2-20.3-45.2-45.2V97h302.9v317.2H394.6z"
		/>
		<path d="M243.2,411c7.5,0,13.5-6,13.5-13.5V158.9c0-7.5-6-13.5-13.5-13.5s-13.5,6-13.5,13.5v238.5
			C229.7,404.9,235.7,411,243.2,411z"
		/>
		<path d="M155.1,396.1c7.5,0,13.5-6,13.5-13.5V173.7c0-7.5-6-13.5-13.5-13.5s-13.5,6-13.5,13.5v208.9
			C141.6,390.1,147.7,396.1,155.1,396.1z"
		/>
		<path d="M331.3,396.1c7.5,0,13.5-6,13.5-13.5V173.7c0-7.5-6-13.5-13.5-13.5s-13.5,6-13.5,13.5v208.9
			C317.8,390.1,323.8,396.1,331.3,396.1z"
		/>
	</g>

	<!-- Viewbox 0 0 451 451 -->
	<g id="icon_search">
		<path d="M447.05,428l-109.6-109.6c29.4-33.8,47.2-77.9,47.2-126.1C384.65,86.2,298.35,0,192.35,0C86.25,0,0.05,86.3,0.05,192.3
			s86.3,192.3,192.3,192.3c48.2,0,92.3-17.8,126.1-47.2L428.05,447c2.6,2.6,6.1,4,9.5,4s6.9-1.3,9.5-4
			C452.25,441.8,452.25,433.2,447.05,428z M26.95,192.3c0-91.2,74.2-165.3,165.3-165.3c91.2,0,165.3,74.2,165.3,165.3
			s-74.1,165.4-165.3,165.4C101.15,357.7,26.95,283.5,26.95,192.3z"
		/>
	</g>

	<!-- Viewbox 0 0 487.222 487.222 -->
	<g id="icon_star">
		<path d="M486.554,186.811c-1.6-4.9-5.8-8.4-10.9-9.2l-152-21.6l-68.4-137.5c-2.3-4.6-7-7.5-12.1-7.5l0,0c-5.1,0-9.8,2.9-12.1,7.6
			l-67.5,137.9l-152,22.6c-5.1,0.8-9.3,4.3-10.9,9.2s-0.2,10.3,3.5,13.8l110.3,106.9l-25.5,151.4c-0.9,5.1,1.2,10.2,5.4,13.2
			c2.3,1.7,5.1,2.6,7.9,2.6c2.2,0,4.3-0.5,6.3-1.6l135.7-71.9l136.1,71.1c2,1,4.1,1.5,6.2,1.5l0,0c7.4,0,13.5-6.1,13.5-13.5
			c0-1.1-0.1-2.1-0.4-3.1l-26.3-150.5l109.6-107.5C486.854,197.111,488.154,191.711,486.554,186.811z M349.554,293.911
			c-3.2,3.1-4.6,7.6-3.8,12l22.9,131.3l-118.2-61.7c-3.9-2.1-8.6-2-12.6,0l-117.8,62.4l22.1-131.5c0.7-4.4-0.7-8.8-3.9-11.9
			l-95.6-92.8l131.9-19.6c4.4-0.7,8.2-3.4,10.1-7.4l58.6-119.7l59.4,119.4c2,4,5.8,6.7,10.2,7.4l132,18.8L349.554,293.911z"
		/>
	</g>
</svg>